<?xml version="1.0" encoding="UTF-8" standalone="no"?>
<!-- Uploaded to: SVG Repo, www.svgrepo.com, Transformed by: SVG Repo Mixer Tools -->

<svg
   width="800px"
   height="800px"
   viewBox="0 0 1024 1024"
   class="icon"
   version="1.1"
   fill="#000000"
   id="svg11"
   sodipodi:docname="router-on.svg"
   inkscape:version="1.2.1 (9c6d41e410, 2022-07-14)"
   xmlns:inkscape="http://www.inkscape.org/namespaces/inkscape"
   xmlns:sodipodi="http://sodipodi.sourceforge.net/DTD/sodipodi-0.dtd"
   xmlns="http://www.w3.org/2000/svg"
   xmlns:svg="http://www.w3.org/2000/svg">
  <defs
     id="defs15" />
  <sodipodi:namedview
     id="namedview13"
     pagecolor="#505050"
     bordercolor="#ffffff"
     borderopacity="1"
     inkscape:showpageshadow="0"
     inkscape:pageopacity="0"
     inkscape:pagecheckerboard="1"
     inkscape:deskcolor="#505050"
     showgrid="false"
     inkscape:zoom="1.04375"
     inkscape:cx="69.461078"
     inkscape:cy="400.47904"
     inkscape:window-width="1920"
     inkscape:window-height="1004"
     inkscape:window-x="-10"
     inkscape:window-y="-10"
     inkscape:window-maximized="1"
     inkscape:current-layer="SVGRepo_iconCarrier" />
  <g
     id="SVGRepo_bgCarrier"
     stroke-width="0" />
  <g
     id="SVGRepo_tracerCarrier"
     stroke-linecap="round"
     stroke-linejoin="round" />
  <g
     id="SVGRepo_iconCarrier">
    <path
       d="M77 403.4v228.5c1.5 93.7 195.7 183.5 435 183.5s433.4-89.8 435-183.5V403.4H77z"
       fill="#00aaff"
       id="path4"
       style="fill:#00bcf5;fill-opacity:1" />
    <path
       d="M947 402.7c0 99.4-194.8 194-435 194s-435-94.6-435-194 194.8-180 435-180 435 80.5 435 180z"
       fill="#3ED6FF"
       id="path6" />
    <path
       d="M474.1 311.4H503l0.1 63.2h29.5l-0.7-63.2h28.9l-43.7-75.1zM533 417.2h-29.9l0.1 73.9h-30.6l46.2 75.2 45.5-75.2h-30.6zM654.5 380.9l-1.4-30-72.1 45 76.4 45.1-1.4-30h126.2l-2.6-30.1zM381.1 380.9h-125l-2.3 30.1H380l-1.1 30 75.9-45.1-72.5-45z"
       fill="#FFFFFF"
       id="path8" />
  </g>
</svg>
