<?xml version="1.0" encoding="UTF-8" standalone="no"?>
<!-- Uploaded to: SVG Repo, www.svgrepo.com, Transformed by: SVG Repo Mixer Tools -->

<svg
   width="800px"
   height="800px"
   viewBox="0 0 24 24"
   fill="none"
   version="1.1"
   id="svg9"
   sodipodi:docname="wifi-on.svg"
   inkscape:version="1.2.1 (9c6d41e410, 2022-07-14)"
   xmlns:inkscape="http://www.inkscape.org/namespaces/inkscape"
   xmlns:sodipodi="http://sodipodi.sourceforge.net/DTD/sodipodi-0.dtd"
   xmlns="http://www.w3.org/2000/svg"
   xmlns:svg="http://www.w3.org/2000/svg">
  <defs
     id="defs13" />
  <sodipodi:namedview
     id="namedview11"
     pagecolor="#505050"
     bordercolor="#ffffff"
     borderopacity="1"
     inkscape:showpageshadow="0"
     inkscape:pageopacity="0"
     inkscape:pagecheckerboard="1"
     inkscape:deskcolor="#505050"
     showgrid="false"
     inkscape:zoom="2.9521708"
     inkscape:cx="-292.66599"
     inkscape:cy="570.25833"
     inkscape:window-width="1920"
     inkscape:window-height="1047"
     inkscape:window-x="-10"
     inkscape:window-y="-10"
     inkscape:window-maximized="1"
     inkscape:current-layer="svg9" />
  <g
     id="SVGRepo_bgCarrier"
     stroke-width="0" />
  <g
     id="SVGRepo_tracerCarrier"
     stroke-linecap="round"
     stroke-linejoin="round"
     stroke="#fffff"
     stroke-width="2.16">
    <path
       d="M16.19 2H7.81C4.17 2 2 4.17 2 7.81V16.18C2 19.83 4.17 22 7.81 22H16.18C19.82 22 21.99 19.83 21.99 16.19V7.81C22 4.17 19.83 2 16.19 2ZM14.79 16.6C14.64 16.79 14.42 16.89 14.2 16.89C14.04 16.89 13.88 16.84 13.74 16.73C12.68 15.91 11.31 15.91 10.25 16.73C9.92 16.98 9.45 16.92 9.2 16.6C8.95 16.27 9.01 15.8 9.33 15.55C10.92 14.32 13.06 14.32 14.65 15.55C14.99 15.8 15.05 16.27 14.79 16.6ZM17 13.51C16.85 13.7 16.63 13.8 16.41 13.8C16.25 13.8 16.09 13.75 15.95 13.64C13.55 11.79 10.46 11.79 8.06 13.64C7.73 13.9 7.26 13.84 7 13.51C6.74 13.18 6.81 12.71 7.13 12.46C10.08 10.18 13.9 10.18 16.85 12.46C17.19 12.71 17.25 13.18 17 13.51ZM18.59 10.42C18.44 10.61 18.22 10.71 18 10.71C17.84 10.71 17.68 10.66 17.54 10.55C14.17 7.95 9.82 7.95 6.46 10.55C6.13 10.8 5.66 10.74 5.41 10.42C5.16 10.09 5.22 9.62 5.54 9.37C9.46 6.34 14.53 6.34 18.46 9.37C18.79 9.62 18.85 10.09 18.59 10.42Z"
       fill="#3ED6FF"
       id="path3" />
  </g>
  <g
     id="SVGRepo_iconCarrier">
    <path
       d="M16.19 2H7.81C4.17 2 2 4.17 2 7.81V16.18C2 19.83 4.17 22 7.81 22H16.18C19.82 22 21.99 19.83 21.99 16.19V7.81C22 4.17 19.83 2 16.19 2ZM14.79 16.6C14.64 16.79 14.42 16.89 14.2 16.89C14.04 16.89 13.88 16.84 13.74 16.73C12.68 15.91 11.31 15.91 10.25 16.73C9.92 16.98 9.45 16.92 9.2 16.6C8.95 16.27 9.01 15.8 9.33 15.55C10.92 14.32 13.06 14.32 14.65 15.55C14.99 15.8 15.05 16.27 14.79 16.6ZM17 13.51C16.85 13.7 16.63 13.8 16.41 13.8C16.25 13.8 16.09 13.75 15.95 13.64C13.55 11.79 10.46 11.79 8.06 13.64C7.73 13.9 7.26 13.84 7 13.51C6.74 13.18 6.81 12.71 7.13 12.46C10.08 10.18 13.9 10.18 16.85 12.46C17.19 12.71 17.25 13.18 17 13.51ZM18.59 10.42C18.44 10.61 18.22 10.71 18 10.71C17.84 10.71 17.68 10.66 17.54 10.55C14.17 7.95 9.82 7.95 6.46 10.55C6.13 10.8 5.66 10.74 5.41 10.42C5.16 10.09 5.22 9.62 5.54 9.37C9.46 6.34 14.53 6.34 18.46 9.37C18.79 9.62 18.85 10.09 18.59 10.42Z"
       fill="#3ED6FF"
       id="path6" />
  </g>
  <path
     style="fill:#ffffff;stroke:#ffffff;stroke-width:3.6211;stroke-linecap:round"
     d="m 318.56287,560.92304 c -13.68744,-4.25004 -20.3454,-20.66698 -13.74956,-33.90311 6.65572,-13.35628 42.66629,-31.9326 71.71364,-36.99401 23.67728,-4.12569 51.96405,-1.06239 75.20958,8.14477 12.9346,5.12317 31.05206,15.7525 38.20116,22.41221 6.64618,6.19122 9.28396,15.99432 6.66014,24.75186 -2.62833,8.77255 -13.81591,17.03213 -23.09567,17.05109 -5.71602,0.0117 -9.87389,-1.70065 -18.41234,-7.58271 -34.68771,-23.89605 -75.29775,-24.05496 -109.79459,-0.42962 -11.77471,8.06397 -17.40915,9.44443 -26.73236,6.54952 z"
     id="path311"
     transform="scale(0.03)" />
  <path
     style="fill:#ffffff;stroke:#ffffff;stroke-width:3.6211;stroke-linecap:round"
     d="m 247.98274,458.99682 c -11.95763,-2.98862 -20.55239,-14.805 -19.23968,-26.45138 0.93419,-8.28811 4.12154,-12.66479 15.33961,-21.06339 27.10844,-20.29522 60.41487,-36.2268 93.12094,-44.54287 70.6353,-17.96022 143.89616,-5.01858 206.45197,36.47005 18.91779,12.54676 24.24037,17.64184 26.46449,25.33328 3.83259,13.25386 -3.48586,25.67387 -17.56117,29.80278 -8.32372,2.44173 -13.12851,0.86123 -26.57088,-8.74023 -26.11307,-18.65175 -54.41445,-31.30784 -83.56001,-37.36718 -31.90817,-6.63369 -66.92398,-5.46045 -97.99687,3.28347 -25.23106,7.10003 -53.30203,21.00078 -72.96932,36.13441 -3.05422,2.35016 -6.96342,4.8605 -8.68711,5.57853 -4.2322,1.76299 -11.09106,2.48751 -14.79197,1.56253 z"
     id="path313"
     transform="scale(0.03)" />
  <path
     style="fill:#ffffff;stroke:#ffffff;stroke-width:3.6211;stroke-linecap:round"
     d="m 192.94111,355.08447 c -8.20476,-2.93197 -13.11253,-7.64349 -15.75071,-15.12092 -2.9505,-8.36259 -0.83784,-18.3108 5.19858,-24.47943 8.67358,-8.86354 41.40683,-29.98732 64.08155,-41.35381 62.33546,-31.24781 131.99056,-43.21481 198.06515,-34.02831 57.67787,8.01908 114.89931,31.62138 162.97786,67.22397 9.93594,7.35765 11.94793,9.3066 14.13174,13.68892 7.88743,15.82803 -2.65926,33.84807 -20.60246,35.20127 -6.96298,0.52512 -11.8885,-1.7795 -26.13323,-12.22755 -34.69833,-25.4501 -80.31064,-45.22999 -121.73594,-52.79109 -63.48602,-11.58769 -127.09917,-2.32941 -185.66013,27.02107 -17.48894,8.76537 -29.74845,16.38933 -51.09652,31.77597 -8.47062,6.10521 -16.04135,7.74665 -23.47589,5.08991 z"
     id="path315"
     transform="scale(0.03)" />
  <g
     id="g5096"
     stroke-linecap="round"
     stroke-linejoin="round"
     stroke="#fffff"
     stroke-width="2.16"
     transform="matrix(0.05252617,0,0,0.05252617,-9.6491004,15.700841)">
    <path
       d="M 16.19,2 H 7.81 C 4.17,2 2,4.17 2,7.81 v 8.37 C 2,19.83 4.17,22 7.81,22 h 8.37 c 3.64,0 5.81,-2.17 5.81,-5.81 V 7.81 C 22,4.17 19.83,2 16.19,2 Z m -1.4,14.6 c -0.15,0.19 -0.37,0.29 -0.59,0.29 -0.16,0 -0.32,-0.05 -0.46,-0.16 -1.06,-0.82 -2.43,-0.82 -3.49,0 -0.33,0.25 -0.8,0.19 -1.05,-0.13 -0.25,-0.33 -0.19,-0.8 0.13,-1.05 1.59,-1.23 3.73,-1.23 5.32,0 0.34,0.25 0.4,0.72 0.14,1.05 z M 17,13.51 c -0.15,0.19 -0.37,0.29 -0.59,0.29 -0.16,0 -0.32,-0.05 -0.46,-0.16 -2.4,-1.85 -5.49,-1.85 -7.89,0 -0.33,0.26 -0.8,0.2 -1.06,-0.13 -0.26,-0.33 -0.19,-0.8 0.13,-1.05 2.95,-2.28 6.77,-2.28 9.72,0 0.34,0.25 0.4,0.72 0.15,1.05 z m 1.59,-3.09 c -0.15,0.19 -0.37,0.29 -0.59,0.29 -0.16,0 -0.32,-0.05 -0.46,-0.16 -3.37,-2.6 -7.72,-2.6 -11.08,0 -0.33,0.25 -0.8,0.19 -1.05,-0.13 -0.25,-0.33 -0.19,-0.8 0.13,-1.05 3.92,-3.03 8.99,-3.03 12.92,0 0.33,0.25 0.39,0.72 0.13,1.05 z"
       fill="#3ed6ff"
       id="path5094" />
  </g>
  <g
     id="g5100"
     transform="matrix(0.05252617,0,0,0.05252617,-9.6491004,15.700841)">
    <path
       d="M 16.19,2 H 7.81 C 4.17,2 2,4.17 2,7.81 v 8.37 C 2,19.83 4.17,22 7.81,22 h 8.37 c 3.64,0 5.81,-2.17 5.81,-5.81 V 7.81 C 22,4.17 19.83,2 16.19,2 Z m -1.4,14.6 c -0.15,0.19 -0.37,0.29 -0.59,0.29 -0.16,0 -0.32,-0.05 -0.46,-0.16 -1.06,-0.82 -2.43,-0.82 -3.49,0 -0.33,0.25 -0.8,0.19 -1.05,-0.13 -0.25,-0.33 -0.19,-0.8 0.13,-1.05 1.59,-1.23 3.73,-1.23 5.32,0 0.34,0.25 0.4,0.72 0.14,1.05 z M 17,13.51 c -0.15,0.19 -0.37,0.29 -0.59,0.29 -0.16,0 -0.32,-0.05 -0.46,-0.16 -2.4,-1.85 -5.49,-1.85 -7.89,0 -0.33,0.26 -0.8,0.2 -1.06,-0.13 -0.26,-0.33 -0.19,-0.8 0.13,-1.05 2.95,-2.28 6.77,-2.28 9.72,0 0.34,0.25 0.4,0.72 0.15,1.05 z m 1.59,-3.09 c -0.15,0.19 -0.37,0.29 -0.59,0.29 -0.16,0 -0.32,-0.05 -0.46,-0.16 -3.37,-2.6 -7.72,-2.6 -11.08,0 -0.33,0.25 -0.8,0.19 -1.05,-0.13 -0.25,-0.33 -0.19,-0.8 0.13,-1.05 3.92,-3.03 8.99,-3.03 12.92,0 0.33,0.25 0.39,0.72 0.13,1.05 z"
       fill="#3ed6ff"
       id="path5098" />
  </g>
  <path
     style="fill:#ffffff;stroke:#ffffff;stroke-width:0.00570608;stroke-linecap:round"
     d="m -9.1471136,16.584736 c -0.021567,-0.0067 -0.03206,-0.03256 -0.021665,-0.05342 0.010486,-0.02105 0.067235,-0.05032 0.1130052,-0.0583 0.03731,-0.0065 0.081885,-0.0017 0.1185142,0.01284 0.020384,0.0081 0.04893,0.02482 0.0602,0.03532 0.010472,0.0098 0.01463,0.0252 0.010493,0.039 -0.00413,0.01383 -0.02177,0.02684 -0.036393,0.02687 -0.00901,1.8e-5 -0.015561,-0.0027 -0.029015,-0.01195 -0.054663,-0.03765 -0.1186535,-0.0379 -0.1730127,-6.77e-4 -0.018557,0.01271 -0.027433,0.01488 -0.042126,0.01032 z"
     id="path5102" />
  <path
     style="fill:#ffffff;stroke:#ffffff;stroke-width:0.00570608;stroke-linecap:round"
     d="m -9.2583324,16.424121 c -0.018844,-0.0047 -0.032389,-0.02333 -0.030317,-0.04168 0.00147,-0.01306 0.00651,-0.01996 0.024171,-0.03319 0.042714,-0.03198 0.095201,-0.05709 0.1467389,-0.07019 0.1113056,-0.0283 0.2267489,-0.0079 0.3253236,0.05747 0.029813,0.01977 0.038199,0.0278 0.041706,0.03992 0.00602,0.02089 -0.00546,0.04045 -0.027671,0.04696 -0.013118,0.0038 -0.020685,0.0013 -0.041874,-0.01377 -0.041146,-0.02939 -0.085745,-0.04934 -0.1316721,-0.05888 -0.050281,-0.01045 -0.1054585,-0.0086 -0.1544221,0.0052 -0.03976,0.01119 -0.083993,0.0331 -0.1149841,0.05694 -0.00483,0.0037 -0.010976,0.0077 -0.013692,0.0088 -0.00665,0.0028 -0.017479,0.0039 -0.02331,0.0024 z"
     id="path5104" />
  <path
     style="fill:#ffffff;stroke:#ffffff;stroke-width:0.00570608;stroke-linecap:round"
     d="m -9.3450666,16.260378 c -0.012929,-0.0046 -0.020664,-0.01205 -0.024822,-0.02383 -0.00462,-0.01317 -0.00133,-0.02885 0.00819,-0.03858 0.013664,-0.01397 0.065247,-0.04726 0.1009785,-0.06516 0.098228,-0.04924 0.2079889,-0.0681 0.3121083,-0.05362 0.090888,0.01263 0.1810564,0.04983 0.2568181,0.105931 0.015659,0.01159 0.01883,0.01467 0.022267,0.02157 0.012432,0.02494 -0.0042,0.05334 -0.032466,0.05547 -0.010969,8.4e-4 -0.018732,-0.0028 -0.041181,-0.01927 -0.054677,-0.0401 -0.1265523,-0.07127 -0.1918301,-0.08319 -0.1000398,-0.01826 -0.2002805,-0.0036 -0.2925601,0.04258 -0.027559,0.01381 -0.046879,0.02582 -0.080518,0.05007 -0.013349,0.0096 -0.025277,0.01221 -0.036995,0.008 z"
     id="path5106"
     inkscape:export-filename="./wifi-on.png"
     inkscape:export-xdpi="96"
     inkscape:export-ydpi="96" />
</svg>
