<?xml version="1.0" encoding="UTF-8" standalone="no"?>
<!-- Uploaded to: SVG Repo, www.svgrepo.com, Transformed by: SVG Repo Mixer Tools -->

<svg
   width="800px"
   height="800px"
   viewBox="0 0 24 24"
   fill="none"
   version="1.1"
   id="svg9"
   sodipodi:docname="wifi-on.svg"
   inkscape:version="1.2.1 (9c6d41e410, 2022-07-14)"
   xmlns:inkscape="http://www.inkscape.org/namespaces/inkscape"
   xmlns:sodipodi="http://sodipodi.sourceforge.net/DTD/sodipodi-0.dtd"
   xmlns="http://www.w3.org/2000/svg"
   xmlns:svg="http://www.w3.org/2000/svg">
  <defs
     id="defs13" />
  <sodipodi:namedview
     id="namedview11"
     pagecolor="#505050"
     bordercolor="#ffffff"
     borderopacity="1"
     inkscape:showpageshadow="0"
     inkscape:pageopacity="0"
     inkscape:pagecheckerboard="1"
     inkscape:deskcolor="#505050"
     showgrid="false"
     inkscape:zoom="2.9521708"
     inkscape:cx="-292.66599"
     inkscape:cy="570.25833"
     inkscape:window-width="1920"
     inkscape:window-height="1047"
     inkscape:window-x="-10"
     inkscape:window-y="-10"
     inkscape:window-maximized="1"
     inkscape:current-layer="svg9" />
  <g
     id="SVGRepo_bgCarrier"
     stroke-width="0" />
  <g
     id="SVGRepo_tracerCarrier"
     stroke-linecap="round"
     stroke-linejoin="round"
     stroke="#fffff"
     stroke-width="2.16">
    <path
       d="M16.19 2H7.81C4.17 2 2 4.17 2 7.81V16.18C2 19.83 4.17 22 7.81 22H16.18C19.82 22 21.99 19.83 21.99 16.19V7.81C22 4.17 19.83 2 16.19 2ZM14.79 16.6C14.64 16.79 14.42 16.89 14.2 16.89C14.04 16.89 13.88 16.84 13.74 16.73C12.68 15.91 11.31 15.91 10.25 16.73C9.92 16.98 9.45 16.92 9.2 16.6C8.95 16.27 9.01 15.8 9.33 15.55C10.92 14.32 13.06 14.32 14.65 15.55C14.99 15.8 15.05 16.27 14.79 16.6ZM17 13.51C16.85 13.7 16.63 13.8 16.41 13.8C16.25 13.8 16.09 13.75 15.95 13.64C13.55 11.79 10.46 11.79 8.06 13.64C7.73 13.9 7.26 13.84 7 13.51C6.74 13.18 6.81 12.71 7.13 12.46C10.08 10.18 13.9 10.18 16.85 12.46C17.19 12.71 17.25 13.18 17 13.51ZM18.59 10.42C18.44 10.61 18.22 10.71 18 10.71C17.84 10.71 17.68 10.66 17.54 10.55C14.17 7.95 9.82 7.95 6.46 10.55C6.13 10.8 5.66 10.74 5.41 10.42C5.16 10.09 5.22 9.62 5.54 9.37C9.46 6.34 14.53 6.34 18.46 9.37C18.79 9.62 18.85 10.09 18.59 10.42Z"
       fill="#3ED6FF"
       id="path3" />
  </g>
  <g
     id="SVGRepo_iconCarrier">
    <path
       d="M16.19 2H7.81C4.17 2 2 4.17 2 7.81V16.18C2 19.83 4.17 22 7.81 22H16.18C19.82 22 21.99 19.83 21.99 16.19V7.81C22 4.17 19.83 2 16.19 2ZM14.79 16.6C14.64 16.79 14.42 16.89 14.2 16.89C14.04 16.89 13.88 16.84 13.74 16.73C12.68 15.91 11.31 15.91 10.25 16.73C9.92 16.98 9.45 16.92 9.2 16.6C8.95 16.27 9.01 15.8 9.33 15.55C10.92 14.32 13.06 14.32 14.65 15.55C14.99 15.8 15.05 16.27 14.79 16.6ZM17 13.51C16.85 13.7 16.63 13.8 16.41 13.8C16.25 13.8 16.09 13.75 15.95 13.64C13.55 11.79 10.46 11.79 8.06 13.64C7.73 13.9 7.26 13.84 7 13.51C6.74 13.18 6.81 12.71 7.13 12.46C10.08 10.18 13.9 10.18 16.85 12.46C17.19 12.71 17.25 13.18 17 13.51ZM18.59 10.42C18.44 10.61 18.22 10.71 18 10.71C17.84 10.71 17.68 10.66 17.54 10.55C14.17 7.95 9.82 7.95 6.46 10.55C6.13 10.8 5.66 10.74 5.41 10.42C5.16 10.09 5.22 9.62 5.54 9.37C9.46 6.34 14.53 6.34 18.46 9.37C18.79 9.62 18.85 10.09 18.59 10.42Z"
       fill="#3ED6FF"
       id="path6" />
  </g>
  <path
     style="fill:#ffffff;stroke:#ffffff;stroke-width:3.6211;stroke-linecap:round"
     d="m 318.56287,560.92304 c -13.68744,-4.25004 -20.3454,-20.66698 -13.74956,-33.90311 6.65572,-13.35628 42.66629,-31.9326 71.71364,-36.99401 23.67728,-4.12569 51.96405,-1.06239 75.20958,8.14477 12.9346,5.12317 31.05206,15.7525 38.20116,22.41221 6.64618,6.19122 9.28396,15.99432 6.66014,24.75186 -2.62833,8.77255 -13.81591,17.03213 -23.09567,17.05109 -5.71602,0.0117 -9.87389,-1.70065 -18.41234,-7.58271 -34.68771,-23.89605 -75.29775,-24.05496 -109.79459,-0.42962 -11.77471,8.06397 -17.40915,9.44443 -26.73236,6.54952 z"
     id="path311"
     transform="scale(0.03)" />
  <path
     style="fill:#ffffff;stroke:#ffffff;stroke-width:3.6211;stroke-linecap:round"
     d="m 247.98274,458.99682 c -11.95763,-2.98862 -20.55239,-14.805 -19.23968,-26.45138 0.93419,-8.28811 4.12154,-12.66479 15.33961,-21.06339 27.10844,-20.29522 60.41487,-36.2268 93.12094,-44.54287 70.6353,-17.96022 143.89616,-5.01858 206.45197,36.47005 18.91779,12.54676 24.24037,17.64184 26.46449,25.33328 3.83259,13.25386 -3.48586,25.67387 -17.56117,29.80278 -8.32372,2.44173 -13.12851,0.86123 -26.57088,-8.74023 -26.11307,-18.65175 -54.41445,-31.30784 -83.56001,-37.36718 -31.90817,-6.63369 -66.92398,-5.46045 -97.99687,3.28347 -25.23106,7.10003 -53.30203,21.00078 -72.96932,36.13441 -3.05422,2.35016 -6.96342,4.8605 -8.68711,5.57853 -4.2322,1.76299 -11.09106,2.48751 -14.79197,1.56253 z"
     id="path313"
     transform="scale(0.03)" />
  <path
     style="fill:#ffffff;stroke:#ffffff;stroke-width:3.6211;stroke-linecap:round"
     d="m 192.94111,355.08447 c -8.20476,-2.93197 -13.11253,-7.64349 -15.75071,-15.12092 -2.9505,-8.36259 -0.83784,-18.3108 5.19858,-24.47943 8.67358,-8.86354 41.40683,-29.98732 64.08155,-41.35381 62.33546,-31.24781 131.99056,-43.21481 198.06515,-34.02831 57.67787,8.01908 114.89931,31.62138 162.97786,67.22397 9.93594,7.35765 11.94793,9.3066 14.13174,13.68892 7.88743,15.82803 -2.65926,33.84807 -20.60246,35.20127 -6.96298,0.52512 -11.8885,-1.7795 -26.13323,-12.22755 -34.69833,-25.4501 -80.31064,-45.22999 -121.73594,-52.79109 -63.48602,-11.58769 -127.09917,-2.32941 -185.66013,27.02107 -17.48894,8.76537 -29.74845,16.38933 -51.09652,31.77597 -8.47062,6.10521 -16.04135,7.74665 -23.47589,5.08991 z"
     id="path315"
     transform="scale(0.03)" />
  <g
     id="g5096"
     stroke-linecap="round"
     stroke-linejoin="round"
     stroke="#fffff"
     stroke-width="2.16"
     transform="matrix(0.03751869,0,0,0.03751869,-9.6190854,15.730856)"
     inkscape:export-filename="./AP-on.png"
     inkscape:export-xdpi="96"
     inkscape:export-ydpi="96">
    <path
       d="M 16.19,2 H 7.81 C 4.17,2 2,4.17 2,7.81 v 8.37 C 2,19.83 4.17,22 7.81,22 h 8.37 c 3.64,0 5.81,-2.17 5.81,-5.81 V 7.81 C 22,4.17 19.83,2 16.19,2 Z m -1.4,14.6 c -0.15,0.19 -0.37,0.29 -0.59,0.29 -0.16,0 -0.32,-0.05 -0.46,-0.16 -1.06,-0.82 -2.43,-0.82 -3.49,0 -0.33,0.25 -0.8,0.19 -1.05,-0.13 -0.25,-0.33 -0.19,-0.8 0.13,-1.05 1.59,-1.23 3.73,-1.23 5.32,0 0.34,0.25 0.4,0.72 0.14,1.05 z M 17,13.51 c -0.15,0.19 -0.37,0.29 -0.59,0.29 -0.16,0 -0.32,-0.05 -0.46,-0.16 -2.4,-1.85 -5.49,-1.85 -7.89,0 -0.33,0.26 -0.8,0.2 -1.06,-0.13 -0.26,-0.33 -0.19,-0.8 0.13,-1.05 2.95,-2.28 6.77,-2.28 9.72,0 0.34,0.25 0.4,0.72 0.15,1.05 z m 1.59,-3.09 c -0.15,0.19 -0.37,0.29 -0.59,0.29 -0.16,0 -0.32,-0.05 -0.46,-0.16 -3.37,-2.6 -7.72,-2.6 -11.08,0 -0.33,0.25 -0.8,0.19 -1.05,-0.13 -0.25,-0.33 -0.19,-0.8 0.13,-1.05 3.92,-3.03 8.99,-3.03 12.92,0 0.33,0.25 0.39,0.72 0.13,1.05 z"
       fill="#3ed6ff"
       id="path5094" />
  </g>
  <g
     id="g5100"
     transform="matrix(0.03751869,0,0,0.03751869,-9.6190854,15.730856)">
    <path
       d="M 16.19,2 H 7.81 C 4.17,2 2,4.17 2,7.81 v 8.37 C 2,19.83 4.17,22 7.81,22 h 8.37 c 3.64,0 5.81,-2.17 5.81,-5.81 V 7.81 C 22,4.17 19.83,2 16.19,2 Z m -1.4,14.6 c -0.15,0.19 -0.37,0.29 -0.59,0.29 -0.16,0 -0.32,-0.05 -0.46,-0.16 -1.06,-0.82 -2.43,-0.82 -3.49,0 -0.33,0.25 -0.8,0.19 -1.05,-0.13 -0.25,-0.33 -0.19,-0.8 0.13,-1.05 1.59,-1.23 3.73,-1.23 5.32,0 0.34,0.25 0.4,0.72 0.14,1.05 z M 17,13.51 c -0.15,0.19 -0.37,0.29 -0.59,0.29 -0.16,0 -0.32,-0.05 -0.46,-0.16 -2.4,-1.85 -5.49,-1.85 -7.89,0 -0.33,0.26 -0.8,0.2 -1.06,-0.13 -0.26,-0.33 -0.19,-0.8 0.13,-1.05 2.95,-2.28 6.77,-2.28 9.72,0 0.34,0.25 0.4,0.72 0.15,1.05 z m 1.59,-3.09 c -0.15,0.19 -0.37,0.29 -0.59,0.29 -0.16,0 -0.32,-0.05 -0.46,-0.16 -3.37,-2.6 -7.72,-2.6 -11.08,0 -0.33,0.25 -0.8,0.19 -1.05,-0.13 -0.25,-0.33 -0.19,-0.8 0.13,-1.05 3.92,-3.03 8.99,-3.03 12.92,0 0.33,0.25 0.39,0.72 0.13,1.05 z"
       fill="#3ed6ff"
       id="path5098" />
  </g>
  <path
     style="fill:#ffffff;stroke:#ffffff;stroke-width:0.00407577;stroke-linecap:round"
     d="m -9.2605234,16.36221 c -0.015405,-0.0048 -0.0229,-0.02326 -0.015475,-0.03816 0.00749,-0.01503 0.048025,-0.03594 0.080718,-0.04164 0.02665,-0.0046 0.058489,-0.0012 0.084653,0.0092 0.01456,0.0058 0.03495,0.01773 0.043,0.02523 0.00748,0.007 0.01045,0.018 0.00749,0.02786 -0.00295,0.0099 -0.01555,0.01917 -0.025995,0.01919 -0.00644,1.2e-5 -0.011115,-0.0019 -0.020725,-0.0085 -0.039045,-0.02689 -0.084753,-0.02707 -0.1235805,-4.84e-4 -0.013255,0.0091 -0.019595,0.01063 -0.03009,0.0074 z"
     id="path5102" />
  <path
     style="fill:#ffffff;stroke:#ffffff;stroke-width:0.00407577;stroke-linecap:round"
     d="m -9.3399654,16.247485 c -0.01346,-0.0034 -0.023135,-0.01666 -0.021655,-0.02977 0.00105,-0.0093 0.00465,-0.01426 0.017265,-0.02371 0.03051,-0.02284 0.068001,-0.04078 0.1048135,-0.05014 0.079504,-0.02021 0.1619635,-0.0056 0.232374,0.04105 0.021295,0.01412 0.027285,0.01986 0.02979,0.02851 0.0043,0.01492 -0.0039,0.02889 -0.019765,0.03354 -0.00937,0.0027 -0.014775,9.29e-4 -0.02991,-0.0098 -0.02939,-0.02099 -0.061247,-0.03524 -0.094052,-0.04206 -0.035915,-0.0075 -0.075328,-0.0061 -0.1103015,0.0037 -0.0284,0.008 -0.059995,0.02364 -0.082131,0.04067 -0.00345,0.0026 -0.00784,0.0055 -0.00978,0.0063 -0.00475,0.002 -0.012485,0.0028 -0.01665,0.0017 z"
     id="path5104" />
  <path
     style="fill:#ffffff;stroke:#ffffff;stroke-width:0.00407577;stroke-linecap:round"
     d="m -9.4019184,16.130525 c -0.00924,-0.0033 -0.01476,-0.0086 -0.01773,-0.01702 -0.0033,-0.0094 -9.5e-4,-0.02061 0.00585,-0.02756 0.00976,-0.01 0.046605,-0.03376 0.072127,-0.04654 0.070163,-0.03517 0.1485635,-0.04864 0.2229345,-0.0383 0.06492,0.009 0.129326,0.03559 0.1834415,0.07566 0.011185,0.0083 0.01345,0.01048 0.015905,0.01541 0.00888,0.01781 -0.003,0.0381 -0.02319,0.03962 -0.00784,6e-4 -0.01338,-0.002 -0.029415,-0.01376 -0.039055,-0.02864 -0.090395,-0.05091 -0.1370215,-0.05942 -0.071457,-0.01304 -0.1430575,-0.0026 -0.2089715,0.03041 -0.019685,0.0099 -0.033485,0.01844 -0.057513,0.03576 -0.00954,0.0069 -0.018055,0.0087 -0.026425,0.0057 z"
     id="path5106"
     inkscape:export-filename="./wifi-on.png"
     inkscape:export-xdpi="96"
     inkscape:export-ydpi="96" />
</svg>
